<svg width="20" height="23" viewBox="0 0 20 23" fill="none" xmlns="http://www.w3.org/2000/svg">
<path fill-rule="evenodd" clip-rule="evenodd" d="M5.42229 19.863C5.84429 19.863 6.18729 20.2518 6.18729 20.73C6.18729 21.2083 5.84429 21.5959 5.42229 21.5959C5.00029 21.5959 4.65829 21.2083 4.65829 20.73C4.65829 20.2518 5.00029 19.863 5.42229 19.863Z" stroke="#222222" stroke-width="1.5" stroke-linecap="round" stroke-linejoin="round"/>
<path fill-rule="evenodd" clip-rule="evenodd" d="M16.6747 19.863C17.0967 19.863 17.4397 20.2518 17.4397 20.73C17.4397 21.2083 17.0967 21.5959 16.6747 21.5959C16.2527 21.5959 15.9097 21.2083 15.9097 20.73C15.9097 20.2518 16.2527 19.863 16.6747 19.863Z" stroke="#222222" stroke-width="1.5" stroke-linecap="round" stroke-linejoin="round"/>
<path d="M0.749893 1.08325L2.82989 1.49125L3.79289 14.494C3.87089 15.5537 4.65189 16.3674 5.58989 16.3674H16.5019C17.3979 16.3674 18.1579 15.6217 18.2869 14.6153L19.2359 7.18285C19.3529 6.26599 18.7259 5.44545 17.9089 5.44545H3.16389" stroke="#222222" stroke-width="1.5" stroke-linecap="round" stroke-linejoin="round"/>
<path d="M12.1254 9.63429H14.8984" stroke="#222222" stroke-width="1.5" stroke-linecap="round" stroke-linejoin="round"/>
</svg>
