<svg width="17" height="24" viewBox="0 0 17 24" fill="none" xmlns="http://www.w3.org/2000/svg">
<ellipse cx="8.57897" cy="6.64826" rx="4.77803" ry="5.4151" stroke="#222222" stroke-width="1.5" stroke-linecap="round" stroke-linejoin="round"/>
<path fill-rule="evenodd" clip-rule="evenodd" d="M1.00002 19.5947C0.998732 19.214 1.07385 18.838 1.2197 18.495C1.67736 17.4577 2.96798 16.9079 4.03892 16.6589C4.81128 16.4721 5.59431 16.3473 6.38217 16.2854C7.84084 16.1402 9.30794 16.1402 10.7666 16.2854C11.5544 16.348 12.3374 16.4728 13.1099 16.6589C14.1808 16.9079 15.4714 17.4058 15.9291 18.495C16.2224 19.1941 16.2224 20.0056 15.9291 20.7046C15.4714 21.7939 14.1808 22.2918 13.1099 22.5304C12.3384 22.725 11.5551 22.8533 10.7666 22.9143C9.57937 23.0283 8.38659 23.0491 7.19681 22.9765C6.92221 22.9765 6.65677 22.9765 6.38217 22.9143C5.59663 22.854 4.81632 22.7257 4.04807 22.5304C2.96798 22.2918 1.68652 21.7939 1.2197 20.7046C1.0746 20.3577 0.999552 19.9786 1.00002 19.5947Z" stroke="#222222" stroke-width="1.5" stroke-linecap="round" stroke-linejoin="round"/>
</svg>
